<?xml version="1.0" standalone="no"?>
<!DOCTYPE svg PUBLIC "-//W3C//DTD SVG 20010904//EN"
 "http://www.w3.org/TR/2001/REC-SVG-20010904/DTD/svg10.dtd">
<svg version="1.0" xmlns="http://www.w3.org/2000/svg"
 width="346.000000pt" height="346.000000pt" viewBox="0 0 346.000000 346.000000"
 preserveAspectRatio="xMidYMid meet">
<metadata>
Created by potrace 1.14, written by Peter Selinger 2001-2017
</metadata>
<g transform="translate(0.000000,346.000000) scale(0.100000,-0.100000)"
fill="#000000" stroke="none">
<path d="M2094 2834 c3 -26 6 -60 6 -75 0 -16 5 -29 10 -29 7 0 10 28 8 75 -2
56 -7 75 -17 75 -11 0 -12 -10 -7 -46z"/>
<path d="M2182 2844 c-27 -19 -28 -38 -2 -64 25 -25 55 -25 80 0 21 21 18 46
-8 68 -21 16 -43 15 -70 -4z m67 -18 c22 -26 -10 -63 -44 -50 -17 7 -29 39
-20 54 9 15 51 12 64 -4z"/>
<path d="M1120 2683 c0 -93 -1 -209 -1 -260 -1 -136 12 -365 23 -388 5 -12 6
22 2 85 -3 58 -6 246 -7 418 0 171 -4 312 -8 312 -5 0 -9 -75 -9 -167z"/>
<path d="M1196 2814 c-37 -36 -11 -74 52 -77 38 -2 39 -2 40 35 1 28 -3 40
-17 48 -28 15 -57 12 -75 -6z m62 -6 c20 -20 14 -45 -13 -52 -33 -8 -45 -1
-45 29 0 32 35 46 58 23z"/>
<path d="M1715 2568 c4 -84 11 -160 16 -168 10 -18 10 89 1 208 -4 45 -4 89 1
97 6 11 3 15 -8 15 -15 0 -16 -15 -10 -152z"/>
<path d="M2390 2691 c0 -10 3 -33 6 -50 6 -28 10 -31 45 -31 21 0 41 5 44 10
4 6 -10 10 -35 10 -51 0 -50 22 1 31 l34 6 -37 2 c-26 1 -38 6 -38 15 0 10 13
16 38 19 34 3 33 4 -10 5 -41 2 -48 -1 -48 -17z"/>
<path d="M2020 2663 c0 -36 14 -73 24 -63 8 8 -6 100 -15 100 -5 0 -9 -17 -9
-37z"/>
<path d="M2187 2693 c-7 -14 5 -93 14 -93 5 0 9 15 9 33 l1 32 29 -35 c18 -22
32 -31 38 -25 12 13 3 95 -10 95 -6 0 -8 -13 -6 -30 3 -16 1 -30 -3 -30 -5 0
-18 14 -31 30 -22 30 -33 36 -41 23z"/>
<path d="M1764 2665 c3 -13 11 -37 17 -52 10 -27 11 -27 25 -9 8 11 14 28 14
38 0 29 18 21 25 -12 9 -41 32 -38 44 8 13 46 13 52 2 52 -5 0 -13 -15 -17
-32 l-7 -33 -14 33 c-14 34 -31 42 -38 17 -16 -49 -18 -50 -28 -17 -11 37 -32
44 -23 7z"/>
<path d="M1268 2665 c-3 -3 -4 -19 -2 -34 5 -32 -15 -55 -40 -45 -10 4 -16 18
-16 40 0 19 -4 34 -10 34 -13 0 -13 -46 0 -71 14 -25 66 -26 79 -1 10 19 1 88
-11 77z"/>
<path d="M2532 2558 c-12 -12 -17 -114 -6 -142 3 -9 11 -16 16 -16 6 0 7 28 3
76 -6 60 -5 78 6 85 8 5 9 9 4 9 -6 0 -16 -5 -23 -12z"/>
<path d="M1344 2475 c0 -49 1 -71 3 -48 2 23 2 64 0 90 -2 26 -3 8 -3 -42z"/>
<path d="M2606 2527 c-10 -22 1 -87 16 -87 6 0 8 9 5 20 -4 17 0 20 24 20 22
0 29 -5 29 -20 0 -11 5 -20 10 -20 6 0 10 20 10 44 0 25 -4 48 -10 51 -5 3
-10 -3 -10 -14 0 -32 -57 -30 -63 2 -3 19 -4 20 -11 4z"/>
<path d="M1390 2486 c0 -52 20 -74 21 -24 l0 33 16 -32 c9 -18 20 -33 25 -33
4 0 14 15 22 33 l14 32 1 -32 c2 -54 21 -37 21 17 0 62 -21 68 -43 13 l-15
-38 -18 38 c-25 51 -44 48 -44 -7z"/>
<path d="M1812 2478 c-20 -46 -19 -65 2 -35 16 21 39 22 56 2 25 -30 29 -14 8
30 -12 25 -28 45 -35 45 -7 0 -21 -19 -31 -42z m37 -7 c-15 -5 -22 6 -14 19 6
9 10 9 16 -1 5 -8 4 -15 -2 -18z"/>
<path d="M1206 2459 c-9 -23 -14 -44 -10 -48 4 -3 9 0 11 7 3 6 17 12 33 12
16 0 30 -6 33 -12 2 -7 7 -10 11 -6 11 9 -32 88 -48 88 -8 0 -21 -19 -30 -41z
m44 0 c0 -5 -7 -9 -15 -9 -9 0 -12 6 -9 15 6 15 24 11 24 -6z"/>
<path d="M2760 2399 c0 -5 5 -7 10 -4 6 3 10 8 10 11 0 2 -4 4 -10 4 -5 0 -10
-5 -10 -11z"/>
<path d="M2830 2361 c0 -10 3 -33 6 -50 6 -27 11 -31 38 -31 43 0 59 13 59 46
0 34 -26 54 -70 54 -26 0 -33 -4 -33 -19z m80 -20 c7 -15 6 -23 -6 -35 -29
-30 -54 -14 -54 35 0 26 46 26 60 0z"/>
<path d="M1400 2320 l0 -50 48 2 c43 1 44 2 10 5 -48 5 -53 33 -7 33 18 0 28
4 24 10 -4 6 -10 8 -15 5 -11 -7 -40 5 -40 16 0 5 14 9 30 9 17 0 30 5 30 10
0 6 -18 10 -40 10 l-40 0 0 -50z"/>
<path d="M2255 2323 c7 -50 11 -60 21 -51 9 10 -7 98 -18 98 -7 0 -8 -18 -3
-47z"/>
<path d="M2420 2326 c0 -25 5 -48 10 -51 6 -4 10 7 10 26 l0 33 33 -32 c18
-18 36 -32 40 -32 10 0 5 90 -5 96 -4 3 -8 -12 -8 -33 l0 -38 -31 38 c-17 20
-35 37 -40 37 -5 0 -9 -20 -9 -44z"/>
<path d="M2632 2323 l3 -48 45 -2 c46 -2 46 1 -2 11 -37 8 -36 26 2 26 17 0
30 5 30 10 0 6 -13 10 -30 10 -16 0 -30 5 -30 10 0 6 13 10 29 10 17 0 33 5
36 10 4 6 -12 10 -40 10 l-46 0 3 -47z"/>
<path d="M1618 2350 c18 -8 22 -17 22 -50 0 -22 5 -40 10 -40 6 0 10 18 10 40
0 33 4 42 23 50 17 7 10 9 -33 9 -43 0 -50 -2 -32 -9z"/>
<path d="M1800 2311 c0 -28 5 -51 10 -51 6 0 10 9 10 20 0 28 34 26 53 -2 8
-13 18 -20 22 -16 4 4 2 14 -5 23 -10 12 -10 18 0 30 18 22 2 35 -49 42 l-41
6 0 -52z m78 17 c-7 -20 -58 -23 -58 -4 0 11 10 16 31 16 20 0 29 -4 27 -12z"/>
<path d="M2026 2320 c-19 -49 -20 -72 -2 -47 15 20 62 23 69 5 2 -7 7 -10 11
-6 11 9 -32 88 -48 88 -8 0 -21 -18 -30 -40z m44 -1 c0 -5 -7 -9 -15 -9 -9 0
-12 6 -9 15 6 15 24 11 24 -6z"/>
<path d="M1190 2291 c0 -28 5 -51 10 -51 6 0 10 9 10 20 0 27 35 26 54 -2 9
-12 19 -19 22 -15 4 4 -1 16 -11 27 -11 13 -14 20 -6 20 7 0 11 10 9 23 -2 18
-10 23 -45 25 l-43 3 0 -50z m70 19 c0 -9 -42 -22 -48 -15 -3 2 -2 11 1 19 6
15 47 11 47 -4z"/>
<path d="M105 2263 c-53 -35 -64 -52 -65 -91 0 -42 73 -123 141 -158 129 -65
179 -71 179 -23 0 23 3 23 40 4 l30 -15 -10 25 c-6 15 -10 39 -10 54 0 72
-161 231 -234 231 -17 0 -49 -12 -71 -27z m113 -102 c16 -23 16 -24 -8 -17
-26 8 -70 50 -70 67 0 16 60 -23 78 -50z"/>
<path d="M2996 2242 c-2 -4 12 -6 32 -4 56 5 62 10 15 11 -23 1 -44 -3 -47 -7z"/>
<path d="M1958 2207 c-16 -38 -9 -126 13 -165 13 -23 18 -28 14 -12 -5 14 -11
63 -14 110 -4 53 -9 78 -13 67z"/>
<path d="M2561 2211 c-16 -11 -6 -120 14 -148 11 -15 12 -5 8 67 -3 47 -6 86
-7 87 -1 1 -8 -2 -15 -6z"/>
<path d="M1345 2200 c3 -5 8 -10 11 -10 2 0 4 5 4 10 0 6 -5 10 -11 10 -5 0
-7 -4 -4 -10z"/>
<path d="M2866 2170 c-9 -22 -16 -48 -16 -58 1 -16 1 -16 14 1 7 9 23 17 36
17 13 0 29 -8 36 -17 9 -12 13 -14 14 -5 0 17 -49 102 -60 102 -4 0 -15 -18
-24 -40z m33 -19 c-15 -5 -22 6 -14 19 6 9 10 9 16 -1 5 -8 4 -15 -2 -18z"/>
<path d="M3050 2183 c0 -39 11 -73 22 -73 6 0 8 15 3 38 l-6 37 33 -38 c34
-38 65 -51 54 -21 -3 9 -6 31 -6 50 0 19 -4 34 -10 34 -5 0 -10 -15 -10 -32
l-1 -33 -28 33 c-34 39 -51 41 -51 5z"/>
<path d="M3260 2183 c0 -63 9 -73 59 -73 30 0 41 3 32 9 -8 5 -24 8 -37 6 -13
-1 -25 4 -28 11 -4 10 3 14 24 14 16 0 32 5 35 10 4 6 -8 10 -29 10 -51 0 -49
27 2 33 34 3 33 4 -10 5 -46 2 -48 1 -48 -25z"/>
<path d="M2614 2188 c2 -7 10 -30 17 -50 7 -21 18 -38 25 -38 6 0 16 17 21 38
l10 37 16 -37 c9 -21 20 -38 25 -38 8 0 32 65 32 89 0 25 -19 9 -26 -21 l-7
-33 -15 33 c-21 42 -38 41 -49 -5 l-9 -38 -13 38 c-7 20 -17 37 -23 37 -5 0
-7 -6 -4 -12z"/>
<path d="M1426 2150 c-19 -49 -20 -72 -2 -47 16 21 66 23 66 2 0 -8 5 -15 10
-15 15 0 12 16 -10 60 -11 22 -27 40 -34 40 -8 0 -21 -18 -30 -40z m44 0 c0
-5 -4 -10 -10 -10 -5 0 -10 5 -10 10 0 6 5 10 10 10 6 0 10 -4 10 -10z"/>
<path d="M1616 2182 c-8 -13 6 -92 16 -92 6 0 7 7 4 15 -9 26 23 30 48 6 29
-27 45 -27 20 0 -14 16 -15 23 -6 26 18 7 14 31 -7 43 -23 12 -68 13 -75 2z
m72 -24 c-3 -7 -15 -13 -28 -13 -13 0 -25 6 -27 13 -3 8 6 12 27 12 21 0 30
-4 28 -12z"/>
<path d="M2020 2146 c0 -25 5 -48 10 -51 6 -3 10 3 10 14 0 32 16 33 50 5 33
-29 54 -26 27 4 -12 13 -14 21 -6 29 23 23 2 43 -46 43 l-45 0 0 -44z m78 22
c-7 -20 -58 -23 -58 -4 0 11 10 16 31 16 20 0 29 -4 27 -12z"/>
<path d="M1218 2163 c19 -4 22 -11 22 -49 0 -24 5 -44 10 -44 6 0 10 20 10 44
0 38 3 45 23 49 12 2 -3 4 -33 4 -30 0 -45 -2 -32 -4z"/>
<path d="M520 2052 c0 -13 107 -145 126 -155 12 -7 15 -6 10 2 -23 36 49 -11
93 -61 18 -21 39 -38 46 -38 7 0 20 -11 29 -25 27 -40 75 -85 81 -75 7 11 134
-76 136 -93 1 -7 0 -21 -1 -32 -2 -19 -1 -19 16 -4 11 9 26 18 34 21 11 3 8 8
-10 18 -32 16 -109 82 -197 166 -46 45 -96 80 -155 110 -72 36 -94 53 -128 99
-38 51 -80 87 -80 67z"/>
<path d="M2791 2046 c-17 -20 -9 -135 10 -147 8 -4 14 -7 15 -6 1 1 -1 40 -5
86 -5 74 -8 82 -20 67z"/>
<path d="M1770 2043 c0 -5 28 -7 62 -5 107 5 117 9 26 11 -49 0 -88 -2 -88 -6z"/>
<path d="M2865 2030 c3 -5 15 -10 26 -10 16 0 19 -7 19 -40 0 -22 5 -40 10
-40 6 0 10 18 10 40 0 29 4 40 15 40 8 0 15 5 15 10 0 6 -23 10 -51 10 -31 0
-48 -4 -44 -10z"/>
<path d="M1418 2024 c-12 -11 -10 -92 2 -99 6 -4 10 9 10 32 l1 38 33 -37 c18
-21 36 -38 40 -38 3 0 6 25 6 56 0 34 -4 53 -10 49 -5 -3 -10 -20 -10 -37 l0
-31 -32 37 c-18 21 -36 34 -40 30z"/>
<path d="M1342 2003 c-10 -27 -6 -103 6 -115 9 -9 12 6 12 60 0 72 -5 87 -18
55z"/>
<path d="M1664 2006 c-3 -8 -1 -34 4 -58 l10 -43 1 58 c1 56 -4 71 -15 43z"/>
<path d="M2044 2004 c3 -9 6 -31 6 -50 0 -19 5 -34 10 -34 6 0 10 9 10 19 0
32 17 33 38 4 11 -16 24 -25 28 -20 4 4 -3 19 -17 33 l-24 26 24 19 c13 10 17
19 10 19 -7 0 -21 -8 -32 -17 -18 -17 -19 -17 -28 0 -12 21 -33 23 -25 1z"/>
<path d="M1842 1998 c-15 -15 -15 -43 -2 -69 13 -23 72 -26 90 -4 19 23 3 31
-19 11 -15 -14 -24 -15 -40 -6 -27 14 -27 46 0 60 15 9 24 8 35 -1 16 -13 30
-6 19 10 -9 15 -68 14 -83 -1z"/>
<path d="M327 1933 c-4 -3 -7 -11 -7 -17 0 -6 5 -5 12 2 6 6 9 14 7 17 -3 3
-9 2 -12 -2z"/>
<path d="M3037 1903 c-13 -12 -7 -26 6 -15 7 6 42 13 77 15 l65 3 -71 2 c-39
1 -74 -1 -77 -5z"/>
<path d="M2580 1858 c1 -55 15 -127 27 -139 6 -6 8 23 5 77 -4 66 -1 88 9 95
10 6 6 9 -13 9 -26 0 -28 -3 -28 -42z"/>
<path d="M1560 1813 c0 -71 9 -123 21 -123 5 0 7 24 4 53 -3 28 -7 67 -9 85
-5 57 -16 47 -16 -15z"/>
<path d="M3087 1862 c-8 -12 5 -102 14 -102 5 0 9 15 10 33 l0 32 16 -32 c9
-18 20 -33 25 -33 4 0 14 15 22 33 l14 32 1 -32 c1 -37 21 -46 21 -9 0 39 -12
86 -21 86 -8 0 -14 -11 -35 -70 -3 -9 -12 0 -24 28 -18 40 -33 52 -43 34z"/>
<path d="M2672 1808 c2 -29 7 -52 13 -50 6 2 9 12 7 22 -3 16 3 20 27 20 24 0
31 -4 31 -19 0 -11 5 -23 10 -26 6 -4 10 15 10 49 0 31 -4 56 -10 56 -5 0 -10
-11 -10 -25 0 -21 -5 -25 -30 -25 -25 0 -30 4 -30 25 0 14 -5 25 -11 25 -6 0
-9 -21 -7 -52z"/>
<path d="M2890 1810 c0 -43 3 -50 20 -51 11 -1 30 -2 43 -3 40 -4 43 9 3 14
-48 6 -62 30 -17 30 17 0 31 5 31 10 0 6 -13 10 -30 10 -18 0 -30 5 -30 13 0
9 9 12 29 9 16 -2 32 1 35 7 5 7 -8 11 -38 11 l-46 0 0 -50z"/>
<path d="M1647 1833 c-11 -10 -8 -91 3 -98 6 -3 10 3 10 13 0 15 9 22 35 26
28 6 35 11 35 30 0 13 -7 27 -16 30 -21 8 -59 8 -67 -1z m63 -28 c0 -9 -9 -15
-25 -15 -16 0 -25 6 -25 15 0 9 9 15 25 15 16 0 25 -6 25 -15z"/>
<path d="M334 1784 c-4 -14 -3 -29 2 -34 5 -5 10 6 10 26 2 40 -3 44 -12 8z"/>
<path d="M2427 1593 c-34 -54 -47 -93 -29 -93 4 0 13 14 20 30 8 17 19 36 26
43 14 15 46 64 46 72 0 3 -6 5 -13 5 -7 0 -29 -26 -50 -57z"/>
<path d="M2500 1570 c-24 -24 -24 -29 -5 -57 17 -24 56 -34 79 -21 21 12 21
34 0 42 -28 11 -40 6 -21 -8 21 -17 7 -30 -22 -21 -28 9 -33 33 -11 55 25 25
35 25 61 -1 26 -26 39 -16 14 11 -23 26 -69 26 -95 0z"/>
<path d="M2870 1563 c-36 -8 -69 -19 -73 -23 -10 -9 28 -130 49 -157 12 -16
12 -14 5 12 -5 17 -17 52 -26 78 -10 26 -15 50 -12 53 8 8 110 34 134 34 12 0
25 5 28 10 8 14 -27 11 -105 -7z"/>
<path d="M3073 1563 c-14 -5 -16 -50 -6 -133 5 -45 8 -50 14 -30 4 14 7 53 8
88 l1 62 82 0 c45 0 79 2 77 4 -7 6 -163 14 -176 9z"/>
<path d="M1123 1522 c15 -16 25 -31 22 -34 -3 -3 1 -8 9 -11 30 -12 26 13 -6
42 -42 38 -61 40 -25 3z"/>
<path d="M1230 1500 c35 -31 50 -37 50 -20 0 5 -19 19 -42 30 l-43 21 35 -31z"/>
<path d="M2913 1520 c-27 -11 -37 -43 -21 -69 17 -28 34 -33 87 -25 25 4 40 9
34 11 -7 3 -13 17 -13 33 0 42 -44 67 -87 50z m55 -22 c14 -14 16 -52 3 -43
-5 3 -12 1 -16 -5 -10 -17 -34 -11 -45 11 -20 37 28 67 58 37z"/>
<path d="M3190 1470 c0 -27 5 -50 10 -50 6 0 10 23 10 50 0 28 -4 50 -10 50
-5 0 -10 -22 -10 -50z"/>
<path d="M2641 1386 c-19 -30 -27 -56 -17 -56 2 0 20 -7 40 -15 21 -9 36 -11
36 -5 0 5 -13 16 -30 22 -21 9 -27 17 -21 27 7 10 13 11 30 1 12 -6 27 -9 34
-7 7 3 -3 10 -21 17 -44 16 -27 37 17 22 37 -13 41 0 6 16 -40 18 -52 15 -74
-22z"/>
<path d="M1660 1394 c-51 -14 -104 -13 -146 3 -12 4 -15 3 -10 -5 4 -7 17 -12
30 -12 12 0 26 -3 29 -7 9 -8 -24 -32 -45 -33 -27 0 -64 -100 -38 -100 6 0 10
7 10 15 0 13 4 14 21 4 14 -7 19 -17 16 -30 -4 -14 0 -19 14 -19 16 0 18 5 13
25 -4 15 -2 25 5 25 13 0 30 -31 24 -47 -3 -8 14 -15 49 -20 29 -4 45 -9 36
-11 -10 -2 -18 -7 -18 -12 0 -4 -11 -11 -25 -14 -22 -6 -37 -36 -17 -36 12 0
136 30 162 39 14 5 45 14 70 21 25 6 52 15 60 20 15 7 120 26 190 34 19 3 1 3
-40 2 l-75 -3 35 16 c25 11 65 15 140 14 153 -1 84 15 -124 28 -165 11 -168
11 -189 -10 l-21 -21 24 0 c23 -1 22 -2 -10 -20 -45 -25 -77 -25 -90 -1 -6 12
-23 21 -42 23 -40 4 -54 38 -16 38 13 0 29 -5 36 -12 9 -9 12 -8 12 5 0 25
-34 39 -65 27 -22 -8 -26 -15 -23 -42 3 -30 7 -33 38 -36 58 -6 55 -19 -6 -26
-63 -7 -66 -6 -83 43 -22 66 -16 78 44 100 30 11 66 23 80 27 30 8 43 24 18
23 -10 0 -43 -7 -73 -15z m-112 -97 c3 -12 -3 -17 -22 -17 -28 0 -29 1 -20 25
8 20 38 15 42 -8z"/>
<path d="M2537 1374 c-10 -20 -14 -41 -9 -49 5 -10 15 0 35 35 26 46 26 50 9
50 -11 0 -25 -14 -35 -36z"/>
<path d="M1422 1318 c-20 -31 -21 -48 -2 -48 9 0 33 71 26 77 -2 2 -13 -11
-24 -29z"/>
<path d="M2053 1313 c20 -2 54 -2 75 0 20 2 3 4 -38 4 -41 0 -58 -2 -37 -4z"/>
<path d="M2360 1300 c0 -5 5 -10 11 -10 5 0 7 5 4 10 -3 6 -8 10 -11 10 -2 0
-4 -4 -4 -10z"/>
<path d="M2410 1271 c0 -5 9 -12 19 -16 11 -3 25 -13 33 -22 11 -15 11 -16 -4
-10 -31 11 -30 -12 1 -28 33 -17 61 -20 61 -6 0 13 -51 61 -82 77 -16 8 -28
10 -28 5z"/>
<path d="M1732 968 c-56 -12 -155 -70 -176 -103 -28 -43 -29 -87 -2 -117 30
-31 135 -74 213 -87 139 -22 344 31 402 105 18 23 19 29 7 53 -22 41 -65 77
-133 111 -98 48 -207 61 -311 38z m388 -170 c0 -12 -18 -10 -22 3 -3 8 -8 7
-18 -2 -8 -8 -24 -14 -35 -14 -11 0 -26 -4 -32 -9 -10 -6 -13 0 -13 23 0 37
11 40 34 9 l17 -23 -7 23 c-5 21 -3 23 14 18 12 -4 24 -2 28 5 5 9 11 7 21 -6
7 -11 13 -22 13 -27z m26 33 c-4 -5 -1 -11 6 -13 13 -5 2 -28 -13 -28 -6 0 -8
4 -4 9 3 5 1 12 -5 16 -15 9 -12 25 6 25 8 0 13 -4 10 -9z m-237 -14 c-16 -12
-15 -37 2 -37 6 0 7 5 4 10 -3 6 -2 10 3 10 6 0 12 -7 16 -15 4 -11 -1 -15
-19 -15 -15 0 -26 7 -30 20 -8 25 1 40 23 40 15 -1 16 -2 1 -13z m71 -13 c14
-35 13 -39 -7 -23 -11 10 -14 10 -9 2 4 -7 3 -13 -2 -13 -11 0 -22 24 -22 46
0 24 30 15 40 -12z m-335 -14 c8 -16 15 -30 15 -32 0 -2 -20 -3 -45 -3 -45 0
-64 13 -65 43 0 21 36 13 48 -10 10 -22 11 -22 11 -2 1 18 9 34 17 34 2 0 10
-13 19 -30z m65 -3 c1 -19 2 -18 13 7 10 23 15 26 23 15 25 -32 22 -44 -9 -46
-17 -1 -37 2 -44 8 -10 9 -13 7 -14 -7 0 -18 -1 -18 -9 1 -14 32 -12 48 5 41
8 -3 15 -1 15 5 0 21 20 -3 20 -24z m90 22 c0 7 5 9 10 6 6 -3 10 -16 10 -28
0 -17 2 -19 9 -8 5 8 7 20 4 28 -10 25 24 13 35 -12 7 -14 12 -27 12 -28 0 -8
-66 -4 -77 4 -10 9 -13 8 -13 -2 0 -22 -20 12 -20 35 0 15 3 16 15 6 11 -9 15
-9 15 -1z"/>
<path d="M1575 770 c3 -5 8 -10 11 -10 2 0 4 5 4 10 0 6 -5 10 -11 10 -5 0 -7
-4 -4 -10z"/>
</g>
</svg>
